PathFileType	4	(X/Y/Z)	OpenSim_Sub04_EMGStiffKnee_Magnet.trc
DataRate	CameraRate	NumFrames	NumMarkers	Units	OrigDataRate	OrigDataStartFrame	OrigNumFrames
100	100	23	8	m	100	5174	8277
Frame#	Time	torso_imu_offset_imu	pelvis_imu_offset_imu	tibia_r_imu_offset_imu	femur_r_imu_offset_imu	tibia_l_imu_offset_imu	femur_l_imu_offset_imu	toes_r_imu_offset_imu	toes_l_imu_offset_imu
				X1	Y1	Z1	X2	Y2	Z2	X3	Y3	Z3	X4	Y4	Z4	X5	Y5	Z5	X6	Y6	Z6	X7	Y7	Z7	X8		Y8	Z8	

5174	51.73000000	0.94594103	0.18697454	-0.10901111	-0.55553074	0.07775976	-0.75789028	-0.34715413	-0.74021372	-0.19208078	-0.75966897	-0.34840191	0.10749729	-0.67172756	0.45007977	0.21540741	-0.68699639	0.25542995	0.41698244	-0.80452342	-0.29543439	-0.39087128	-0.67999566	-0.29394802	-0.37228917
5175	51.74000000	0.94434379	0.18473677	-0.10507602	-0.55960394	0.08286675	-0.75848595	-0.34454919	-0.74074600	-0.19576875	-0.75769225	-0.35341009	0.09914595	-0.67895837	0.43973667	0.21116587	-0.68935748	0.25095292	0.42318024	-0.80924115	-0.29578696	-0.38657545	-0.68315621	-0.29841311	-0.37259474
5176	51.75000000	0.94441095	0.18571077	-0.10304130	-0.55801336	0.08662224	-0.74844904	-0.33781975	-0.74110968	-0.19818322	-0.75842267	-0.35828825	0.09561979	-0.69187572	0.42766117	0.20949172	-0.69055309	0.24686148	0.42163735	-0.81199723	-0.29607677	-0.38164356	-0.68177263	-0.30912253	-0.36770812
5177	51.76000000	0.94573953	0.19061305	-0.10196090	-0.55526750	0.09139631	-0.75049453	-0.32977619	-0.74580567	-0.20543738	-0.75567483	-0.36455992	0.09112889	-0.69620650	0.42029889	0.20343188	-0.68923805	0.24081852	0.41682023	-0.81480855	-0.30216308	-0.38058395	-0.67486813	-0.31263115	-0.36757304
5178	51.77000000	0.94572879	0.18748693	-0.10239437	-0.55716103	0.09320329	-0.75951960	-0.32479713	-0.75076476	-0.21273426	-0.75259865	-0.36431943	0.08622114	-0.69926017	0.40863140	0.19952937	-0.69272348	0.23667306	0.42698248	-0.81817345	-0.30728291	-0.37528766	-0.67106222	-0.31507824	-0.36460883
5179	51.78000000	0.94438204	0.19035975	-0.10152726	-0.55886240	0.10128004	-0.75378368	-0.32003991	-0.75009766	-0.21502045	-0.75550659	-0.36618099	0.08354919	-0.70877733	0.39756863	0.19870601	-0.69114316	0.23296136	0.42783347	-0.81258578	-0.31120464	-0.36600518	-0.67249962	-0.32265588	-0.35648912
5180	51.79000000	0.94278954	0.19368446	-0.10605995	-0.55693714	0.10338957	-0.74991004	-0.31200448	-0.74856986	-0.21945070	-0.75830249	-0.37166950	0.07781274	-0.71111289	0.39431231	0.19573909	-0.68696102	0.23342852	0.42183451	-0.81512168	-0.31462991	-0.35896425	-0.67458428	-0.32862611	-0.35305192
5181	51.80000000	0.94446179	0.18959627	-0.10747367	-0.55814579	0.09960219	-0.74364515	-0.30547805	-0.74979202	-0.22553575	-0.75492196	-0.37144452	0.07001236	-0.71181623	0.38348912	0.19738339	-0.68686728	0.23542383	0.42798049	-0.82246649	-0.31602048	-0.35246633	-0.66856199	-0.33671666	-0.34726932
5182	51.81000000	0.94605019	0.19227719	-0.11010249	-0.56161397	0.10870618	-0.74627324	-0.29512308	-0.75848768	-0.22169794	-0.75377831	-0.37378317	0.06807296	-0.71213007	0.37895210	0.19508421	-0.69206487	0.23250104	0.42669954	-0.81896350	-0.32091692	-0.34811270	-0.66413926	-0.33683473	-0.34756182
5183	51.82000000	0.94312046	0.19760622	-0.11178523	-0.55932035	0.11150772	-0.74922877	-0.28676437	-0.75815990	-0.22550025	-0.75514244	-0.37707593	0.07017418	-0.70940888	0.37441324	0.19918813	-0.68827585	0.22956139	0.42653184	-0.82044377	-0.32340683	-0.33952400	-0.66093647	-0.34365403	-0.34347804
5184	51.83000000	0.94018861	0.19790143	-0.11042232	-0.56051039	0.11024144	-0.74039268	-0.27998843	-0.75864822	-0.23332495	-0.74951732	-0.37938987	0.06990268	-0.71375529	0.37073858	0.21321066	-0.68596548	0.22446676	0.42942922	-0.82361004	-0.32713724	-0.32864294	-0.65595138	-0.35553600	-0.33928739
5185	51.84000000	0.94245697	0.19874557	-0.11629662	-0.56466545	0.11406139	-0.74061526	-0.27000916	-0.76370571	-0.22932271	-0.74727654	-0.37929148	0.06958897	-0.70961834	0.37047483	0.21832412	-0.69277147	0.22196720	0.42322516	-0.82084669	-0.32846446	-0.31859189	-0.65760841	-0.35807257	-0.33303465
5186	51.85000000	0.94180789	0.20123792	-0.11918659	-0.56580717	0.11759411	-0.74175591	-0.26009205	-0.76709695	-0.22459760	-0.74895452	-0.38496921	0.06428008	-0.70927610	0.36806409	0.22623699	-0.69074626	0.21649071	0.42747415	-0.82369908	-0.33242468	-0.31404314	-0.66124724	-0.35704058	-0.32939789
5187	51.86000000	0.94237995	0.20235561	-0.12152826	-0.57109413	0.11743630	-0.73623798	-0.25285764	-0.77365212	-0.22793878	-0.74863374	-0.38570316	0.06800648	-0.70694014	0.37220369	0.23662169	-0.68523411	0.20891435	0.43661038	-0.82603847	-0.33350694	-0.30975755	-0.66496313	-0.35234611	-0.33094040
5188	51.87000000	0.93952042	0.20167839	-0.12245374	-0.57437806	0.12146195	-0.73055866	-0.23891665	-0.77446605	-0.23034817	-0.74820838	-0.38349800	0.07092013	-0.70310834	0.36959027	0.24603739	-0.68263641	0.20694727	0.44143983	-0.82600389	-0.33180869	-0.29867291	-0.66742611	-0.34606359	-0.33475399
5189	51.88000000	0.93802563	0.19670908	-0.12324529	-0.57639964	0.12376489	-0.73309864	-0.22037126	-0.77841754	-0.22927029	-0.74428013	-0.39365995	0.06866249	-0.69287626	0.37123585	0.25945312	-0.67769574	0.20130369	0.44011544	-0.83140095	-0.33272578	-0.28552932	-0.66920867	-0.33658040	-0.34533088
5190	51.89000000	0.94146306	0.20008404	-0.12510412	-0.57848890	0.12365126	-0.73450679	-0.20921842	-0.78721931	-0.23095916	-0.74790812	-0.39626494	0.07096465	-0.67818674	0.38866034	0.27443837	-0.67994526	0.19386048	0.45041193	-0.83371267	-0.33853917	-0.26764418	-0.66831107	-0.33562970	-0.35170161
5191	51.90000000	0.94010464	0.20363975	-0.12386461	-0.58062415	0.12876059	-0.73280282	-0.19391381	-0.79682624	-0.22241369	-0.74751664	-0.39377852	0.07048229	-0.67066940	0.39873693	0.28906379	-0.67939734	0.19155840	0.45590186	-0.83789938	-0.34509967	-0.24609496	-0.67106491	-0.33432968	-0.35595631
5192	51.91000000	0.93578452	0.20428970	-0.12903856	-0.58317614	0.13254637	-0.72499792	-0.17632010	-0.79784347	-0.22136756	-0.74664430	-0.38918510	0.06940794	-0.66257190	0.40594880	0.29821836	-0.67115927	0.18834481	0.45736627	-0.84303955	-0.34990904	-0.21837235	-0.67434527	-0.32619695	-0.35994053
5193	51.92000000	0.93669178	0.20429831	-0.13515590	-0.58444467	0.13719681	-0.72557461	-0.16236041	-0.79790212	-0.21929556	-0.75232527	-0.37925270	0.06612983	-0.65661374	0.40627149	0.30514089	-0.66602623	0.18442685	0.46847695	-0.84902353	-0.35612379	-0.19563040	-0.67317963	-0.32212390	-0.35967709
5194	51.93000000	0.93658935	0.20358343	-0.13737483	-0.58414444	0.13919075	-0.72371837	-0.14066965	-0.80385218	-0.21477346	-0.75577261	-0.37535947	0.06554598	-0.65518953	0.40545862	0.30806171	-0.66113696	0.18466540	0.47478420	-0.85632433	-0.36478467	-0.16820191	-0.67645360	-0.32018181	-0.35732649
5195	51.94000000	0.93584769	0.19959921	-0.13581089	-0.58535820	0.13926156	-0.71680191	-0.12289276	-0.81069393	-0.20615709	-0.76318805	-0.36903467	0.06249398	-0.65253053	0.40948604	0.31689103	-0.65979582	0.19504417	0.47845376	-0.85620178	-0.37394553	-0.12283395	-0.67789096	-0.31829184	-0.36180506
5196	51.95000000	0.93302727	0.19827787	-0.14055010	-0.58812638	0.14394487	-0.71336387	-0.10777994	-0.81464074	-0.19698905	-0.76813319	-0.36062724	0.06021010	-0.64426534	0.41369046	0.31551691	-0.65842264	0.20437667	0.47724426	-0.84890331	-0.37862984	-0.07846955	-0.68333379	-0.31433707	-0.36558976
